<svg width="158" height="167" viewBox="0 0 158 167" fill="none" xmlns="http://www.w3.org/2000/svg">
<g id="logo">
<path id="Vector" d="M115.028 57.047L149.515 56.5185C150.184 56.5185 150.939 56.2792 150.939 57.1766C151.423 66.8091 149.088 76.0228 142.399 84.4787C130.542 99.3063 112.622 108.311 88.511 110.534C50.2232 114.084 13.743 97.0029 3.11066 70.9274C-0.266291 62.7334 -0.903826 54.1045 1.2475 45.7101C3.39883 37.3156 8.2812 29.3811 15.516 22.5219C22.7508 15.6626 32.1435 10.063 42.9658 6.15727C53.7882 2.25154 65.7492 0.144651 77.9213 0C78.9746 0 79.2593 0.189459 79.245 0.927351C79.245 6.35185 79.245 11.7764 79.245 17.2009C79.245 17.9886 78.9034 18.198 77.8217 18.198C65.6017 18.4061 53.8559 21.5533 44.5565 27.1112C35.2572 32.6692 28.9706 40.2995 26.7523 48.7208C21.059 69.1225 41.3842 89.245 70.8758 92.416C73.1761 92.6668 75.4954 92.8233 77.8217 92.8846C78.8038 92.8846 79.0742 92.6952 79.0742 92.0171C79.0173 83.0029 78.9936 73.9919 79.0031 64.9843C79.0031 62.7507 79.0885 60.5171 79.0031 58.2835C79.0031 57.396 79.302 57.1567 80.5972 57.1567C91.4146 57.1567 102.232 57.057 113.035 56.9872H115.085L115.028 57.047Z" fill="#333366"/>
<path id="Vector_2" d="M142.655 32.4414C143.522 36.0211 142.745 39.6996 140.435 42.9553C137.979 46.6286 133.904 49.6637 128.802 51.6216C123.7 53.5795 117.834 54.3589 112.052 53.8469C106.27 53.3349 100.873 51.5581 96.64 48.7735C92.4071 45.9889 89.5583 42.3408 88.5055 38.3567C87.4874 34.8777 88.015 31.2658 90.0182 28C89.8345 29.3069 91.2483 29.9652 92.4218 30.6727C98.5152 34.1781 105.264 37.0935 112.484 39.3393C114.088 39.8469 115.89 39.9646 117.602 39.6734C125.051 38.5417 132.259 36.7484 139.05 34.3378C140.429 33.8883 141.658 33.2421 142.655 32.4414Z" fill="#FE9901"/>
<path id="Vector_3" d="M80 14.2081C93.4449 12.1258 106.523 10.0927 119.544 8.04974C120.083 7.95483 120.654 7.99661 121.154 8.16761L156.927 19.561C157.181 19.6396 157.407 19.7476 158 19.9834C155.034 20.4548 152.351 20.8968 149.724 21.2995C139.499 22.8415 129.246 24.3639 119.021 25.9256C118.376 26.0492 117.689 26.0181 117.072 25.8372C104.936 22.2031 92.8753 18.4511 80.8897 14.5813L80 14.2081Z" fill="#333366"/>
<path id="Vector_4" d="M143 32.4384C141.998 33.2604 140.761 33.9243 139.371 34.3867C132.536 36.8506 125.28 38.6834 117.782 39.8401C116.059 40.1378 114.244 40.0175 112.63 39.4987C105.363 37.2033 98.5693 34.2235 92.4357 30.6406C91.2545 29.9376 89.8313 29.2446 90.0163 27.9089C90.9139 25.9226 91.599 23.8915 92.0657 21.8328C92.3361 20.939 92.6634 20.8285 93.8161 21.2001C101.345 23.5201 108.916 25.7798 116.444 28.0897C117.207 28.3468 118.073 28.4072 118.892 28.2604C126.292 27.1155 133.764 25.9204 141.235 24.7152C142.445 24.5244 142.957 24.5545 142.915 25.5889C142.858 27.8687 142.972 30.1284 143 32.4384Z" fill="#333366"/>
<g id="GreatSoftAcademy">
<path d="M42.8128 128.952C42.1984 129.635 41.2997 130.185 40.1165 130.602C38.9333 131.019 37.6363 131.228 36.2255 131.228C34.0563 131.228 32.3232 130.564 31.0263 129.237C29.7293 127.909 29.0353 126.062 28.9443 123.696L28.9329 122.263C28.9329 120.632 29.2211 119.21 29.7976 117.996C30.374 116.775 31.1969 115.838 32.2664 115.186C33.3434 114.526 34.5873 114.196 35.998 114.196C38.061 114.196 39.6614 114.67 40.7991 115.618C41.9444 116.559 42.6118 117.966 42.8014 119.839H38.956C38.8195 118.914 38.5237 118.254 38.0686 117.86C37.6135 117.465 36.9688 117.268 36.1345 117.268C35.1333 117.268 34.3597 117.693 33.8136 118.542C33.2675 119.392 32.9907 120.605 32.9831 122.183V123.184C32.9831 124.837 33.2637 126.081 33.825 126.916C34.3938 127.742 35.285 128.156 36.4986 128.156C37.5377 128.156 38.3113 127.924 38.8195 127.462V124.891H36.0435V122.149H42.8128V128.952ZM52.4036 122.16L51.1407 122.069C49.9348 122.069 49.1611 122.448 48.8198 123.207V131H44.9858V118.69H48.5809L48.7061 120.272C49.3507 119.066 50.2495 118.463 51.4024 118.463C51.812 118.463 52.1684 118.508 52.4718 118.599L52.4036 122.16ZM59.5142 131.228C57.6256 131.228 56.0973 130.666 54.9292 129.544C53.7612 128.414 53.1772 126.946 53.1772 125.141V124.822C53.1772 123.563 53.4085 122.452 53.8712 121.489C54.3414 120.526 55.0241 119.782 55.919 119.259C56.814 118.728 57.8759 118.463 59.1046 118.463C60.8339 118.463 62.1991 119.001 63.2003 120.078C64.2015 121.148 64.702 122.642 64.702 124.561V126.051H57.0795C57.216 126.741 57.5156 127.284 57.9783 127.678C58.4409 128.072 59.0401 128.27 59.7758 128.27C60.9894 128.27 61.9374 127.845 62.6201 126.995L64.3721 129.066C63.8943 129.726 63.2155 130.253 62.3356 130.647C61.4634 131.034 60.5229 131.228 59.5142 131.228ZM59.0818 121.421C57.9593 121.421 57.2919 122.164 57.0795 123.65H60.9477V123.355C60.9628 122.74 60.8073 122.266 60.4812 121.933C60.1551 121.591 59.6886 121.421 59.0818 121.421ZM73.1893 131C73.0527 130.75 72.9314 130.382 72.8252 129.896C72.1198 130.784 71.1338 131.228 69.8672 131.228C68.7067 131.228 67.7207 130.879 66.9092 130.181C66.0976 129.475 65.6918 128.592 65.6918 127.53C65.6918 126.195 66.1848 125.186 67.1708 124.504C68.1569 123.821 69.5903 123.48 71.4713 123.48H72.6545V122.831C72.6545 121.701 72.1653 121.136 71.1869 121.136C70.2768 121.136 69.8217 121.584 69.8217 122.479H65.9876C65.9876 121.288 66.492 120.321 67.5008 119.578C68.5171 118.834 69.8103 118.463 71.3803 118.463C72.9503 118.463 74.1904 118.846 75.1006 119.612C76.0107 120.378 76.4772 121.428 76.5 122.763V128.213C76.5151 129.343 76.6896 130.207 77.0233 130.807V131H73.1893ZM70.7887 128.497C71.2666 128.497 71.661 128.395 71.9719 128.19C72.2905 127.985 72.518 127.754 72.6545 127.496V125.528H71.5396C70.2047 125.528 69.5373 126.127 69.5373 127.325C69.5373 127.674 69.6548 127.959 69.8899 128.179C70.1251 128.391 70.4247 128.497 70.7887 128.497ZM83.0986 115.63V118.69H85.1237V121.352H83.0986V126.984C83.0986 127.447 83.182 127.769 83.3489 127.951C83.5157 128.133 83.8457 128.224 84.3387 128.224C84.7179 128.224 85.0365 128.201 85.2943 128.156V130.898C84.6041 131.118 83.8836 131.228 83.1327 131.228C81.813 131.228 80.8384 130.917 80.2088 130.295C79.5793 129.673 79.2645 128.728 79.2645 127.462V121.352H77.6945V118.69H79.2645V115.63H83.0986ZM38.6602 147.905H33.1879L32.2322 151H27.9659L34.0412 134.435H37.7956L43.9164 151H39.6272L38.6602 147.905ZM34.1436 144.822H37.7045L35.9184 139.077L34.1436 144.822ZM50.1623 148.27C50.7008 148.27 51.118 148.125 51.4138 147.837C51.7096 147.541 51.8537 147.132 51.8461 146.608H55.4412C55.4412 147.959 54.9558 149.066 53.985 149.931C53.0217 150.795 51.7778 151.228 50.2533 151.228C48.4633 151.228 47.0526 150.666 46.0211 149.544C44.9896 148.421 44.4738 146.866 44.4738 144.879V144.72C44.4738 143.476 44.7014 142.38 45.1564 141.432C45.6191 140.476 46.2828 139.744 47.1474 139.236C48.0121 138.72 49.036 138.463 50.2192 138.463C51.8195 138.463 53.09 138.906 54.0305 139.794C54.971 140.681 55.4412 141.883 55.4412 143.4H51.8461C51.8461 142.763 51.6906 142.274 51.3796 141.933C51.0687 141.591 50.6515 141.421 50.1282 141.421C49.1346 141.421 48.5544 142.054 48.3875 143.321C48.3344 143.723 48.3079 144.276 48.3079 144.982C48.3079 146.218 48.4558 147.075 48.7516 147.553C49.0474 148.031 49.5176 148.27 50.1623 148.27ZM63.9967 151C63.8602 150.75 63.7388 150.382 63.6326 149.896C62.9272 150.784 61.9412 151.228 60.6746 151.228C59.5142 151.228 58.5282 150.879 57.7166 150.181C56.905 149.475 56.4993 148.592 56.4993 147.53C56.4993 146.195 56.9923 145.186 57.9783 144.504C58.9643 143.821 60.3978 143.48 62.2788 143.48H63.462V142.831C63.462 141.701 62.9728 141.136 61.9943 141.136C61.0842 141.136 60.6291 141.584 60.6291 142.479H56.7951C56.7951 141.288 57.2994 140.321 58.3082 139.578C59.3245 138.834 60.6177 138.463 62.1877 138.463C63.7578 138.463 64.9979 138.846 65.908 139.612C66.8182 140.378 67.2846 141.428 67.3074 142.763V148.213C67.3225 149.343 67.497 150.207 67.8307 150.807V151H63.9967ZM61.5961 148.497C62.074 148.497 62.4684 148.395 62.7793 148.19C63.0979 147.985 63.3254 147.754 63.462 147.496V145.528H62.347C61.0121 145.528 60.3447 146.127 60.3447 147.325C60.3447 147.674 60.4622 147.959 60.6974 148.179C60.9325 148.391 61.2321 148.497 61.5961 148.497ZM68.957 144.754C68.957 142.805 69.378 141.269 70.2199 140.146C71.0618 139.024 72.2374 138.463 73.7467 138.463C74.8465 138.463 75.7718 138.895 76.5227 139.76V133.525H80.3681V151H76.9209L76.7275 149.68C75.9387 150.712 74.9375 151.228 73.724 151.228C72.2601 151.228 71.0997 150.666 70.2426 149.544C69.3856 148.421 68.957 146.825 68.957 144.754ZM72.7911 144.993C72.7911 147.177 73.4282 148.27 74.7024 148.27C75.5519 148.27 76.1586 147.913 76.5227 147.2V142.513C76.1738 141.785 75.5746 141.421 74.7251 141.421C73.5419 141.421 72.901 142.376 72.8024 144.288L72.7911 144.993ZM88.5026 151.228C86.6141 151.228 85.0858 150.666 83.9177 149.544C82.7497 148.414 82.1657 146.946 82.1657 145.141V144.822C82.1657 143.563 82.397 142.452 82.8597 141.489C83.3299 140.526 84.0125 139.782 84.9075 139.259C85.8025 138.728 86.8644 138.463 88.0931 138.463C89.8224 138.463 91.1876 139.001 92.1888 140.078C93.1899 141.148 93.6905 142.642 93.6905 144.561V146.051H86.068C86.2045 146.741 86.5041 147.284 86.9667 147.678C87.4294 148.072 88.0286 148.27 88.7643 148.27C89.9778 148.27 90.9259 147.845 91.6085 146.995L93.3606 149.066C92.8828 149.726 92.2039 150.253 91.3241 150.647C90.4519 151.034 89.5114 151.228 88.5026 151.228ZM88.0703 141.421C86.9478 141.421 86.2803 142.164 86.068 143.65H89.9361V143.355C89.9513 142.74 89.7958 142.266 89.4697 141.933C89.1435 141.591 88.6771 141.421 88.0703 141.421ZM98.867 138.69L98.9922 140.135C99.8644 139.02 101.036 138.463 102.508 138.463C104.063 138.463 105.113 139.081 105.659 140.317C106.493 139.081 107.699 138.463 109.277 138.463C111.772 138.463 113.054 139.972 113.122 142.991V151H109.277V143.23C109.277 142.6 109.171 142.141 108.958 141.853C108.746 141.565 108.359 141.421 107.798 141.421C107.039 141.421 106.474 141.758 106.103 142.433L106.114 142.592V151H102.269V143.252C102.269 142.608 102.166 142.141 101.962 141.853C101.757 141.565 101.366 141.421 100.79 141.421C100.054 141.421 99.4928 141.758 99.106 142.433V151H95.2719V138.69H98.867ZM120.233 145.63L122.281 138.69H126.388L121.371 153.059L121.154 153.583C120.442 155.175 119.182 155.972 117.377 155.972C116.877 155.972 116.35 155.896 115.796 155.744V153.002H116.297C116.835 153.002 117.245 152.923 117.525 152.763C117.813 152.612 118.026 152.335 118.162 151.933L118.47 151.114L114.192 138.69H118.287L120.233 145.63Z" fill="#333366"/>
<path d="M95.3629 126.597C95.3629 126.013 95.1544 125.558 94.7372 125.232C94.3276 124.906 93.6033 124.568 92.5642 124.219C91.5251 123.87 90.6756 123.533 90.0158 123.207C87.8693 122.153 86.7961 120.704 86.7961 118.861C86.7961 117.943 87.0616 117.135 87.5925 116.438C88.131 115.732 88.8894 115.186 89.8679 114.799C90.8463 114.405 91.9461 114.208 93.1672 114.208C94.358 114.208 95.4236 114.42 96.3641 114.845C97.3122 115.269 98.0479 115.876 98.5712 116.665C99.0946 117.446 99.3562 118.341 99.3562 119.35H95.3743C95.3743 118.675 95.1657 118.152 94.7486 117.78C94.339 117.408 93.7815 117.223 93.0762 117.223C92.3632 117.223 91.7982 117.382 91.381 117.7C90.9714 118.011 90.7666 118.41 90.7666 118.895C90.7666 119.32 90.9942 119.706 91.4493 120.055C91.9043 120.397 92.7045 120.753 93.8498 121.125C94.9951 121.489 95.9356 121.883 96.6713 122.308C98.4613 123.34 99.3562 124.762 99.3562 126.574C99.3562 128.023 98.8102 129.161 97.718 129.987C96.6258 130.814 95.1278 131.228 93.2241 131.228C91.8816 131.228 90.6643 130.989 89.5721 130.511C88.4875 130.025 87.6683 129.366 87.1146 128.531C86.5686 127.689 86.2955 126.722 86.2955 125.63H90.3002C90.3002 126.517 90.5277 127.174 90.9828 127.598C91.4455 128.015 92.1926 128.224 93.2241 128.224C93.8839 128.224 94.4035 128.084 94.7827 127.803C95.1695 127.515 95.3629 127.113 95.3629 126.597ZM100.744 124.731C100.744 123.503 100.983 122.41 101.461 121.455C101.939 120.491 102.625 119.752 103.52 119.236C104.415 118.72 105.466 118.463 106.672 118.463C108.515 118.463 109.967 119.035 111.029 120.181C112.091 121.318 112.622 122.869 112.622 124.834V124.97C112.622 126.889 112.087 128.414 111.018 129.544C109.956 130.666 108.515 131.228 106.694 131.228C104.942 131.228 103.535 130.704 102.474 129.658C101.412 128.603 100.839 127.177 100.756 125.38L100.744 124.731ZM104.578 124.97C104.578 126.108 104.757 126.942 105.113 127.473C105.469 128.004 105.997 128.27 106.694 128.27C108.06 128.27 108.757 127.219 108.788 125.118V124.731C108.788 122.524 108.082 121.421 106.672 121.421C105.39 121.421 104.696 122.372 104.59 124.276L104.578 124.97ZM115.159 131V121.352H113.373V118.69H115.159V117.712C115.159 116.309 115.572 115.22 116.399 114.447C117.226 113.673 118.386 113.286 119.88 113.286C120.426 113.286 121.026 113.366 121.678 113.525L121.689 116.346C121.454 116.278 121.139 116.244 120.745 116.244C119.584 116.244 119.004 116.745 119.004 117.746V118.69H121.405V121.352H119.004V131H115.159ZM127.218 115.63V118.69H129.243V121.352H127.218V126.984C127.218 127.447 127.302 127.769 127.469 127.951C127.636 128.133 127.965 128.224 128.458 128.224C128.838 128.224 129.156 128.201 129.414 128.156V130.898C128.724 131.118 128.003 131.228 127.253 131.228C125.933 131.228 124.958 130.917 124.329 130.295C123.699 129.673 123.384 128.728 123.384 127.462V121.352H121.814V118.69H123.384V115.63H127.218Z" fill="#FE9901"/>
</g>
</g>
</svg>
